# File created by Blade
# Date/Time:  Wed Jan 28 16:58:26 2015
#---------------------------------------------------------
:version 1.10
:name HOM
:units
  mass 1.0
  length 1.000000
  angle deg
:documentation
     Acclaim Skeleton File
:root
   axis xyz
   order TX TY TZ RX RY RZ
   position 0.000000 0.000000 0.000000
   orientation 0 0 0
:bonedata
   begin
      id 1
      name Spine_dum
      direction 0.000000 1.000000 0.000000
      length 9.621153
      axis 0.0 0.0 0.0 xyz
   end
   begin
      id 2
      name LeftUpLeg_dum
      direction 1.000000 0.000000 0.000000
      length 2.700595
      axis 0.0 0.0 0.0 xyz
   end
   begin
      id 3
      name RightUpLeg_dum
      direction -1.000000 0.000000 0.000000
      length 2.700595
      axis 0.0 0.0 0.0 xyz
   end
   begin
      id 4
      name Spine
      direction 0.000000 1.000000 0.000000
      length 0.000000
      axis 0.0 0.0 0.0 xyz
      dof rx ry rz
   end
   begin
      id 5
      name Spine_dum1
      direction 0.000000 1.000000 0.000000
      length 12.771951
      axis 0.0 0.0 0.0 xyz
   end
   begin
      id 6
      name Spine_dum2
      direction 0.000000 1.000000 0.000000
      length 7.400569
      axis 0.0 0.0 0.0 xyz
   end
   begin
      id 7
      name Spine_dum3
      direction 0.000000 1.000000 0.000000
      length 7.400569
      axis 0.0 0.0 0.0 xyz
   end
   begin
      id 8
      name Head
      direction 0.000000 1.000000 0.000000
      length 4.527550
      axis 0.0 0.0 0.0 xyz
      dof rx ry rz
   end
   begin
      id 9
      name LeftShoulder
      direction 1.000000 0.000000 0.000000
      length 8.349299
      axis 0.0 0.0 -90.0 xyz
      dof rx ry rz
   end
   begin
      id 10
      name LeftArm
      direction 1.000000 0.000000 0.000000
      length 11.334839
      axis 0.0 0.0 -90.0 xyz
      dof rx ry rz
   end
   begin
      id 11
      name LeftForeArm
      direction 1.000000 0.000000 0.000000
      length 9.694182
      axis 0.0 0.0 -90.0 xyz
      dof ry rz rx
   end
   begin
      id 12
      name LeftHand
      direction 0.000000 0.000000 0.000000
      length 0.000000
      axis 0.0 0.0 -90.0 xyz
      dof rx ry rz
   end
   begin
      id 13
      name LeftHand_dum1
      direction 0.000000 0.000000 0.000000
      length 0.000000
      axis 0.0 0.0 -90.0 xyz
   end
   begin
      id 14
      name LeftHand_dum2
      direction 1.000000 0.000000 0.000000
      length 3.937000
      axis 0.0 0.0 -90.0 xyz
   end
   begin
      id 15
      name LeftHandThumb1
      direction 0.000000 0.000000 1.000000
      length 3.937000
      axis 0.0 0.0 -90.0 xyz
      dof rx rz ry
   end
   begin
      id 16
      name RightShoulder
      direction -1.000000 0.000000 0.000000
      length 8.349299
      axis 0.0 0.0 90.0 xyz
      dof rx ry rz
   end
   begin
      id 17
      name RightArm
      direction -1.000000 0.000000 0.000000
      length 11.334839
      axis 0.0 0.0 90.0 xyz
      dof rx ry rz
   end
   begin
      id 18
      name RightForeArm
      direction -1.000000 0.000000 0.000000
      length 9.694182
      axis 0.0 0.0 90.0 xyz
      dof ry rz rx
   end
   begin
      id 19
      name RightHand
      direction 0.000000 0.000000 0.000000
      length 0.000000
      axis 0.0 0.0 90.0 xyz
      dof rx ry rz
   end
   begin
      id 20
      name RightHand_dum1
      direction 0.000000 0.000000 0.000000
      length 0.000000
      axis 0.0 0.0 90.0 xyz
   end
   begin
      id 21
      name RightHand_dum2
      direction -1.000000 0.000000 0.000000
      length 3.937000
      axis 0.0 0.0 90.0 xyz
   end
   begin
      id 22
      name RightHandThumb1
      direction 0.000000 0.000000 1.000000
      length 3.937000
      axis 0.0 0.0 90.0 xyz
      dof rx rz ry
   end
   begin
      id 23
      name LeftUpLeg
      direction 0.000000 -1.000000 0.000000
      length 16.757176
      axis 0.0 0.0 0.0 xyz
      dof rx ry rz
   end
   begin
      id 24
      name LeftLeg
      direction 0.000000 -1.000000 0.000000
      length 16.759153
      axis 0.0 0.0 0.0 xyz
      dof rx ry rz
   end
   begin
      id 25
      name LeftFoot
      direction 0.000000 -0.258819 0.965926
      length 5.841289
      axis 15.0 0.0 0.0 xyz
      dof rx ry rz
   end
   begin
      id 26
      name LeftToeBase
      direction 0.000000 0.000000 1.000000
      length 2.952750
      axis 0.0 0.0 0.0 xyz
      dof rx ry rz
   end
   begin
      id 27
      name RightUpLeg
      direction 0.000000 -1.000000 0.000000
      length 16.757176
      axis 0.0 0.0 0.0 xyz
      dof rx ry rz
   end
   begin
      id 28
      name RightLeg
      direction 0.000000 -1.000000 0.000000
      length 16.759153
      axis 0.0 0.0 0.0 xyz
      dof rx ry rz
   end
   begin
      id 29
      name RightFoot
      direction 0.000000 -0.258819 0.965926
      length 5.841289
      axis 15.0 0.0 0.0 xyz
      dof rx ry rz
   end
   begin
      id 30
      name RightToeBase
      direction 0.000000 0.000000 1.000000
      length 2.952750
      axis 0.0 0.0 0.0 xyz
      dof rx ry rz
   end
:hierarchy
   begin
      root Spine_dum LeftUpLeg_dum RightUpLeg_dum
      Spine_dum Spine
      LeftUpLeg_dum LeftUpLeg
      RightUpLeg_dum RightUpLeg
      Spine Spine_dum1 Spine_dum2 Spine_dum3
      Spine_dum1 Head
      Spine_dum2 LeftShoulder
      Spine_dum3 RightShoulder
      LeftShoulder LeftArm
      LeftArm LeftForeArm
      LeftForeArm LeftHand
      LeftHand LeftHand_dum1 LeftHand_dum2
      LeftHand_dum1 LeftHandThumb1
      RightShoulder RightArm
      RightArm RightForeArm
      RightForeArm RightHand
      RightHand RightHand_dum1 RightHand_dum2
      RightHand_dum1 RightHandThumb1
      LeftUpLeg LeftLeg
      LeftLeg LeftFoot
      LeftFoot LeftToeBase
      RightUpLeg RightLeg
      RightLeg RightFoot
      RightFoot RightToeBase
   end

# File created by Blade
# Date/Time:  Wed Jan 28 16:58:32 2015
# Frame Rate: 120.000 fps
#------------------------------------------------------
:FULLY-SPECIFIED
:DEGREES
269
root 12.201977 35.965566 -16.923665 163.379429 -4.861858 -165.504411
Spine 29.209442 -5.472124 9.323499
Head 33.701139 26.500763 19.883973
LeftShoulder -6.450088 2.693980 21.473941
LeftArm 46.159745 -31.226960 -62.629227
LeftForeArm -14.592436 -0.000000 44.109371
LeftHand -2.163182 -0.000000 33.359563
LeftHandThumb1 -26.253704 0.000000 33.147579
RightShoulder -19.676369 -11.265204 -7.950631
RightArm 19.985511 -31.618823 64.814702
RightForeArm -9.519980 -0.000000 35.916417
RightHand -14.035549 -0.000000 10.512024
RightHandThumb1 -24.326973 -0.000000 -32.862282
LeftUpLeg 16.936701 24.486229 16.377291
LeftLeg 5.684943 -0.000000 -0.000000
LeftFoot -16.582495 16.363364 -4.449976
LeftToeBase 12.122364 -0.000000 -0.000000
RightUpLeg -67.523073 -15.732248 4.347990
RightLeg 121.543041 -0.000000 -0.000000
RightFoot -4.643691 -10.357605 9.736380
RightToeBase -2.438615 -0.000000 0.000000
270
root 12.176540 35.978002 -16.944191 163.260518 -4.825541 -165.424062
Spine 29.348811 -5.540345 9.424373
Head 33.677765 26.388867 19.776124
LeftShoulder -6.374394 2.526982 21.465249
LeftArm 45.935256 -31.276640 -62.521484
LeftForeArm -14.860429 -0.000000 44.397804
LeftHand -2.223953 0.000000 33.352322
LeftHandThumb1 -26.253704 0.000000 33.147579
RightShoulder -19.645838 -11.189369 -7.987559
RightArm 19.964776 -31.524880 64.831275
RightForeArm -9.299022 -0.000000 35.847114
RightHand -14.128580 -0.000000 10.202406
RightHandThumb1 -24.326973 -0.000000 -32.862282
LeftUpLeg 17.245561 23.851651 16.260087
LeftLeg 5.224341 -0.000000 -0.000000
LeftFoot -16.408721 16.947909 -4.639860
LeftToeBase 12.111795 -0.000000 -0.000000
RightUpLeg -68.403331 -15.831618 4.620935
RightLeg 122.034419 -0.000000 -0.000000
RightFoot -4.497840 -10.128566 9.794116
RightToeBase -2.455814 -0.000000 0.000000
271
root 12.151912 35.992114 -16.965530 163.135321 -4.781945 -165.292013
Spine 29.490027 -5.572379 9.582828
Head 33.617360 26.296078 19.776677
LeftShoulder -6.453095 2.644716 21.315495
LeftArm 46.419310 -31.345498 -62.736286
LeftForeArm -14.915964 -0.000000 44.510354
LeftHand -2.207584 -0.000000 33.252168
LeftHandThumb1 -26.253704 0.000000 33.147579
RightShoulder -19.616250 -11.100676 -7.993889
RightArm 19.890462 -31.387453 64.815618
RightForeArm -9.213002 -0.000000 35.814464
RightHand -14.117465 -0.000000 10.228488
RightHandThumb1 -24.326973 -0.000000 -32.862282
LeftUpLeg 17.405365 23.756356 16.402093
LeftLeg 5.214919 -0.000000 -0.000000
LeftFoot -16.373648 17.011042 -4.729423
LeftToeBase 12.050382 -0.000000 -0.000000
RightUpLeg -69.288412 -15.933877 4.979854
RightLeg 122.513824 -0.000000 -0.000000
RightFoot -4.285358 -9.954765 9.867160
RightToeBase -2.637222 -0.000000 0.000000
272
root 12.131143 36.004691 -16.986103 162.994941 -4.745185 -165.184661
Spine 29.659775 -5.625128 9.704765
Head 33.579010 26.230646 19.724370
LeftShoulder -6.384685 2.325502 21.388362
LeftArm 46.105827 -31.339124 -62.741116
LeftForeArm -14.884492 -0.000000 44.801795
LeftHand -2.238182 -0.000000 33.000739
LeftHandThumb1 -26.253704 0.000000 33.147579
RightShoulder -19.588932 -11.072782 -8.001845
RightArm 19.878813 -31.169299 64.850155
RightForeArm -9.187707 -0.000000 35.779687
RightHand -14.018956 0.000000 10.170274
RightHandThumb1 -24.326973 -0.000000 -32.862282
LeftUpLeg 17.559443 23.723615 16.558642
LeftLeg 5.268092 -0.000000 -0.000000
LeftFoot -16.375920 16.983237 -4.821385
LeftToeBase 12.063427 -0.000000 -0.000000
RightUpLeg -70.144272 -16.023195 5.272583
RightLeg 122.973192 -0.000000 -0.000000
RightFoot -4.074703 -9.729388 9.900919
RightToeBase -2.631187 -0.000000 0.000000
273
root 12.109006 36.018428 -17.003512 162.876136 -4.712554 -165.066244
Spine 29.811290 -5.686378 9.835848
Head 33.552875 26.176758 19.718687
LeftShoulder -6.431741 2.450235 21.263045
LeftArm 46.422397 -31.404342 -62.807572
LeftForeArm -14.984607 -0.000000 44.995159
LeftHand -2.323960 -0.000000 33.247555
LeftHandThumb1 -26.253704 0.000000 33.147579
RightShoulder -19.531555 -11.009368 -8.014515
RightArm 19.832658 -31.019946 64.851527
RightForeArm -9.059113 0.000000 35.778652
RightHand -14.010965 -0.000000 10.077169
RightHandThumb1 -24.326973 -0.000000 -32.862282
LeftUpLeg 17.685950 23.661362 16.696042
LeftLeg 5.302700 -0.000000 -0.000000
LeftFoot -16.370756 16.999473 -4.917224
LeftToeBase 12.119242 -0.000000 -0.000000
RightUpLeg -70.983431 -16.078000 5.519002
RightLeg 123.394429 -0.000000 -0.000000
RightFoot -3.854898 -9.356076 9.954346
RightToeBase -2.493052 -0.000000 0.000000
274
root 12.086070 36.031755 -17.021736 162.735655 -4.661019 -164.964401
Spine 30.014118 -5.707747 9.971808
Head 33.488442 26.141472 19.650719
LeftShoulder -6.383752 2.264078 21.312422
LeftArm 46.268021 -31.407782 -62.859154
LeftForeArm -15.118206 0.000000 45.281999
LeftHand -2.342090 -0.000000 33.244369
LeftHandThumb1 -26.253704 0.000000 33.147579
RightShoulder -19.542213 -10.970881 -8.021300
RightArm 19.892716 -30.906272 64.811670
RightForeArm -8.930817 -0.000000 35.759818
RightHand -14.159454 -0.000000 10.013388
RightHandThumb1 -24.326973 -0.000000 -32.862282
LeftUpLeg 17.827048 23.661617 16.858742
LeftLeg 5.397920 -0.000000 -0.000000
LeftFoot -16.398528 16.927040 -5.059123
LeftToeBase 12.136675 -0.000000 -0.000000
RightUpLeg -71.866984 -16.192276 5.881795
RightLeg 123.816029 -0.000000 -0.000000
RightFoot -3.511000 -9.407618 9.800881
RightToeBase -2.600876 -0.000000 0.000000
275
root 12.063808 36.046289 -17.037414 162.616163 -4.609436 -164.845773
Spine 30.179440 -5.738549 10.122860
Head 33.417011 26.034492 19.621198
LeftShoulder -6.377825 2.389372 21.201476
LeftArm 46.485765 -31.517150 -62.892324
LeftForeArm -15.224913 0.000000 45.537217
LeftHand -2.390123 -0.000000 33.109607
LeftHandThumb1 -26.253704 0.000000 33.147579
RightShoulder -19.457692 -10.837132 -8.076320
RightArm 19.741541 -30.839147 64.862644
RightForeArm -9.232077 -0.000000 35.796464
RightHand -14.264558 -0.000000 9.795005
RightHandThumb1 -24.326973 -0.000000 -32.862282
LeftUpLeg 17.937496 23.668042 17.028604
LeftLeg 5.491333 -0.000000 -0.000000
LeftFoot -16.400469 16.870464 -5.157626
LeftToeBase 12.142711 -0.000000 -0.000000
RightUpLeg -72.711812 -16.261847 6.187991
RightLeg 124.184354 -0.000000 -0.000000
RightFoot -3.293804 -9.296146 9.947583
RightToeBase -2.658079 -0.000000 0.000000
276
root 12.043943 36.058179 -17.052682 162.482481 -4.572558 -164.745180
Spine 30.381576 -5.777607 10.239150
Head 33.331655 25.988324 19.567783
LeftShoulder -6.373263 2.330281 21.149482
LeftArm 46.473219 -31.491971 -62.754974
LeftForeArm -15.379831 0.000000 45.780893
LeftHand -2.580836 -0.000000 33.416296
LeftHandThumb1 -26.253704 0.000000 33.147579
RightShoulder -19.452275 -10.842804 -8.080662
RightArm 19.855265 -30.747522 64.822727
RightForeArm -8.959443 0.000000 35.769163
RightHand -14.322477 0.000000 9.565373
RightHandThumb1 -24.326973 -0.000000 -32.862282
LeftUpLeg 18.070475 23.635258 17.169540
LeftLeg 5.553723 -0.000000 -0.000000
LeftFoot -16.428116 16.856766 -5.277063
LeftToeBase 12.226516 -0.000000 -0.000000
RightUpLeg -73.534620 -16.309108 6.437139
RightLeg 124.550905 -0.000000 -0.000000
RightFoot -3.130226 -9.162439 10.130034
RightToeBase -2.772750 -0.000000 0.000000
277
root 12.022494 36.069981 -17.069527 162.343161 -4.547426 -164.666528
Spine 30.574560 -5.774359 10.308778
Head 33.245521 25.920566 19.560624
LeftShoulder -6.345586 2.242320 21.180892
LeftArm 46.469920 -31.473291 -62.747193
LeftForeArm -15.566993 -0.000000 45.994332
LeftHand -2.622107 0.000000 33.493863
LeftHandThumb1 -26.253704 0.000000 33.147579
RightShoulder -19.458442 -10.872031 -8.027171
RightArm 19.982686 -30.680947 64.726835
RightForeArm -8.810927 -0.000000 35.730251
RightHand -14.218324 0.000000 9.470664
RightHandThumb1 -24.326973 -0.000000 -32.862282
LeftUpLeg 18.225670 23.617186 17.299636
LeftLeg 5.593293 -0.000000 -0.000000
LeftFoot -16.457063 16.792983 -5.454905
LeftToeBase 12.278035 -0.000000 -0.000000
RightUpLeg -74.441603 -16.465003 6.876975
RightLeg 124.912457 -0.000000 -0.000000
RightFoot -2.912055 -9.581966 10.178433
RightToeBase -2.701691 -0.000000 0.000000
278
root 12.002979 36.081957 -17.080985 162.214296 -4.470793 -164.604207
Spine 30.805550 -5.757099 10.373829
Head 33.129890 25.846930 19.551951
LeftShoulder -6.328755 2.017572 21.240852
LeftArm 46.268766 -31.442828 -62.701782
LeftForeArm -15.776835 -0.000000 46.215426
LeftHand -2.563244 -0.000000 33.333187
LeftHandThumb1 -26.253704 0.000000 33.147579
RightShoulder -19.432314 -10.797657 -8.040294
RightArm 20.042285 -30.642535 64.707669
RightForeArm -8.674373 -0.000000 35.672184
RightHand -14.153432 -0.000000 9.402167
RightHandThumb1 -24.326973 -0.000000 -32.862282
LeftUpLeg 18.370171 23.693219 17.452423
LeftLeg 5.677441 -0.000000 -0.000000
LeftFoot -16.529161 16.674951 -5.665978
LeftToeBase 12.411343 -0.000000 -0.000000
RightUpLeg -75.241505 -16.452119 7.105490
RightLeg 125.253988 -0.000000 -0.000000
RightFoot -2.824332 -9.492739 10.340496
RightToeBase -2.676298 -0.000000 0.000000
279
root 11.982430 36.094931 -17.094715 162.099711 -4.454537 -164.512472
Spine 30.976683 -5.798930 10.449686
Head 33.086450 25.817659 19.600984
LeftShoulder -6.351180 2.112708 21.154414
LeftArm 46.469883 -31.488767 -62.674251
LeftForeArm -15.977389 0.000000 46.392119
LeftHand -2.603109 0.000000 33.408927
LeftHandThumb1 -26.253704 0.000000 33.147579
RightShoulder -19.394033 -10.760923 -8.020883
RightArm 20.090164 -30.543253 64.685023
RightForeArm -8.598536 -0.000000 35.608420
RightHand -14.169540 0.000000 9.382651
RightHandThumb1 -24.326973 -0.000000 -32.862282
LeftUpLeg 18.482737 23.785925 17.631773
LeftLeg 5.770272 -0.000000 -0.000000
LeftFoot -16.612332 16.474394 -5.907858
LeftToeBase 12.507887 -0.000000 -0.000000
RightUpLeg -76.013042 -16.483006 7.294805
RightLeg 125.579154 -0.000000 -0.000000
RightFoot -2.770806 -9.301719 10.320750
RightToeBase -2.572996 -0.000000 0.000000
